# This file uses centimeters as units for non-parametric coordinates.

mtllib spotLightCone_highPoly.mtl
g default
v -0.790329 -0.790329 4.164794
v -0.789996 0.789996 4.164794
v -0.915563 -0.641084 4.164794
v -1.012977 -0.472359 4.164794
v -1.079612 -0.289281 4.164794
v -1.113442 -0.097414 4.164794
v -1.113441 0.097414 4.164794
v -1.079612 0.289280 4.164794
v -1.012977 0.472358 4.164794
v -0.915563 0.641083 4.164794
v 0.789996 -0.789996 4.164794
v -0.641084 -0.915563 4.164794
v -0.472360 -1.012976 4.164794
v -0.289281 -1.079612 4.164794
v -0.097414 -1.113443 4.164794
v 0.097414 -1.113442 4.164794
v 0.289280 -1.079612 4.164794
v 0.472359 -1.012976 4.164794
v 0.641084 -0.915563 4.164794
v 0.790329 0.790329 4.164794
v 0.641084 0.915563 4.164794
v 0.472360 1.012976 4.164794
v 0.289281 1.079612 4.164794
v 0.097414 1.113443 4.164794
v -0.097414 1.113442 4.164794
v -0.289280 1.079612 4.164794
v -0.472359 1.012976 4.164794
v -0.641084 0.915563 4.164794
v 0.915563 0.641084 4.164794
v 1.012977 0.472359 4.164794
v 1.079612 0.289281 4.164794
v 1.113442 0.097414 4.164794
v 1.113441 -0.097414 4.164794
v 1.079612 -0.289280 4.164794
v 1.012977 -0.472358 4.164794
v 0.915563 -0.641083 4.164794
v -0.147355 -0.147355 0.000000
v -0.170705 -0.119529 0.000000
v -0.188867 -0.088070 0.000000
v -0.201291 -0.053936 0.000000
v -0.207599 -0.018162 0.000000
v -0.207599 0.018163 0.000000
v -0.201291 0.053936 0.000000
v -0.188867 0.088070 0.000000
v -0.170705 0.119528 0.000000
v -0.147418 0.147418 0.000000
v -0.119528 -0.170705 0.000000
v -0.088070 -0.188867 0.000000
v -0.053936 -0.201291 0.000000
v -0.018162 -0.207599 0.000000
v 0.018163 -0.207599 0.000000
v 0.053936 -0.201291 0.000000
v 0.088070 -0.188867 0.000000
v 0.119528 -0.170705 0.000000
v 0.147418 -0.147418 0.000000
v 0.119528 0.170705 0.000000
v 0.147355 0.147355 0.000000
v 0.088070 0.188867 0.000000
v 0.053936 0.201291 0.000000
v 0.018162 0.207599 0.000000
v -0.018163 0.207599 0.000000
v -0.053936 0.201291 0.000000
v -0.088070 0.188867 0.000000
v -0.119528 0.170705 0.000000
v 0.170705 0.119529 0.000000
v 0.188867 0.088070 0.000000
v 0.201291 0.053936 0.000000
v 0.207599 0.018162 0.000000
v 0.207599 -0.018163 0.000000
v 0.201291 -0.053936 0.000000
v 0.188867 -0.088070 0.000000
v 0.170705 -0.119528 0.000000
v 0.000000 -0.208392 0.000000
v -0.000000 -1.110865 4.164794
v -1.110395 0.000000 4.164794
v -0.208480 -0.000000 0.000000
v -0.036187 -0.205226 0.000000
v -0.192900 -1.093988 4.164794
v -0.071274 -0.195824 0.000000
v -0.379938 -1.043872 4.164794
v -0.104196 -0.180473 0.000000
v -0.555433 -0.962038 4.164794
v -0.133952 -0.159637 0.000000
v -0.714051 -0.850973 4.164794
v -0.159638 -0.133952 0.000000
v -0.850971 -0.714050 4.164794
v -0.180472 -0.104196 0.000000
v -0.962038 -0.555433 4.164794
v -0.195824 -0.071274 0.000000
v -1.043871 -0.379939 4.164794
v -0.205226 -0.036187 0.000000
v -1.093989 -0.192900 4.164794
v 1.110395 0.000000 4.164794
v 0.208480 -0.000000 0.000000
v 0.036187 -0.205226 0.000000
v 0.192900 -1.093988 4.164794
v 0.071274 -0.195824 0.000000
v 0.379938 -1.043872 4.164794
v 0.104196 -0.180473 0.000000
v 0.555433 -0.962038 4.164794
v 0.133952 -0.159637 0.000000
v 0.714051 -0.850973 4.164794
v 0.159638 -0.133952 0.000000
v 0.850971 -0.714050 4.164794
v 0.180472 -0.104196 0.000000
v 0.962038 -0.555433 4.164794
v 0.195824 -0.071274 0.000000
v 1.043871 -0.379939 4.164794
v 0.205226 -0.036187 0.000000
v 1.093989 -0.192900 4.164794
v 0.000000 0.208392 0.000000
v -0.000000 1.110865 4.164794
v -0.036187 0.205226 0.000000
v -0.192900 1.093988 4.164794
v -0.071274 0.195824 0.000000
v -0.379938 1.043872 4.164794
v -0.104196 0.180473 0.000000
v -0.555433 0.962038 4.164794
v -0.133952 0.159637 0.000000
v -0.714051 0.850973 4.164794
v -0.159638 0.133952 0.000000
v -0.850971 0.714050 4.164794
v -0.180472 0.104196 0.000000
v -0.962038 0.555433 4.164794
v -0.195824 0.071274 0.000000
v -1.043871 0.379939 4.164794
v -0.205226 0.036187 0.000000
v -1.093989 0.192900 4.164794
v 0.036187 0.205226 0.000000
v 0.192900 1.093988 4.164794
v 0.071274 0.195824 0.000000
v 0.379938 1.043872 4.164794
v 0.104196 0.180473 0.000000
v 0.555433 0.962038 4.164794
v 0.133952 0.159637 0.000000
v 0.714051 0.850973 4.164794
v 0.159638 0.133952 0.000000
v 0.850971 0.714050 4.164794
v 0.180472 0.104196 0.000000
v 0.962038 0.555433 4.164794
v 0.195824 0.071274 0.000000
v 1.043871 0.379939 4.164794
v 0.205226 0.036187 0.000000
v 1.093989 0.192900 4.164794
vt 0.885900 0.002800
vt 0.886479 0.997199
vt 0.996902 0.997198
vt 0.996229 0.002799
vt 0.775571 0.002801
vt 0.776057 0.997199
vt 0.665242 0.002801
vt 0.665634 0.997200
vt 0.554911 0.002802
vt 0.555211 0.997200
vt 0.444583 0.002802
vt 0.444788 0.997201
vt 0.334253 0.002802
vt 0.334366 0.997201
vt 0.223924 0.002802
vt 0.223943 0.997201
vt 0.113596 0.002802
vt 0.113520 0.997201
vt 0.003267 0.002802
vt 0.003098 0.997201
vt 0.885900 0.002800
vt 0.996229 0.002799
vt 0.996902 0.997198
vt 0.886479 0.997199
vt 0.775571 0.002801
vt 0.776057 0.997199
vt 0.665242 0.002801
vt 0.665634 0.997200
vt 0.554911 0.002802
vt 0.555211 0.997200
vt 0.444583 0.002802
vt 0.444788 0.997201
vt 0.334253 0.002802
vt 0.334366 0.997201
vt 0.223924 0.002802
vt 0.223943 0.997201
vt 0.113596 0.002802
vt 0.113520 0.997201
vt 0.003267 0.002802
vt 0.003098 0.997201
vt 0.885900 0.002800
vt 0.996229 0.002799
vt 0.996902 0.997198
vt 0.886479 0.997199
vt 0.775571 0.002801
vt 0.776057 0.997199
vt 0.665242 0.002801
vt 0.665634 0.997200
vt 0.554911 0.002802
vt 0.555211 0.997200
vt 0.444583 0.002802
vt 0.444788 0.997201
vt 0.334253 0.002802
vt 0.334366 0.997201
vt 0.223924 0.002802
vt 0.223943 0.997201
vt 0.113596 0.002802
vt 0.113520 0.997201
vt 0.003267 0.002802
vt 0.003098 0.997201
vt 0.885900 0.002800
vt 0.886479 0.997199
vt 0.996902 0.997198
vt 0.996229 0.002799
vt 0.775571 0.002801
vt 0.776057 0.997199
vt 0.665242 0.002801
vt 0.665634 0.997200
vt 0.554911 0.002802
vt 0.555211 0.997200
vt 0.444583 0.002802
vt 0.444788 0.997201
vt 0.334253 0.002802
vt 0.334366 0.997201
vt 0.223924 0.002802
vt 0.223943 0.997201
vt 0.113596 0.002802
vt 0.113520 0.997201
vt 0.003267 0.002802
vt 0.003098 0.997201
vt 0.885900 0.002800
vt 0.996229 0.002799
vt 0.996902 0.997198
vt 0.886479 0.997199
vt 0.775571 0.002801
vt 0.776057 0.997199
vt 0.665242 0.002801
vt 0.665634 0.997200
vt 0.554911 0.002802
vt 0.555211 0.997200
vt 0.444583 0.002802
vt 0.444788 0.997201
vt 0.334253 0.002802
vt 0.334366 0.997201
vt 0.223924 0.002802
vt 0.223943 0.997201
vt 0.113596 0.002802
vt 0.113520 0.997201
vt 0.003267 0.002802
vt 0.003098 0.997201
vt 0.885900 0.002800
vt 0.886479 0.997199
vt 0.996902 0.997198
vt 0.996229 0.002799
vt 0.775571 0.002801
vt 0.776057 0.997199
vt 0.665242 0.002801
vt 0.665634 0.997200
vt 0.554911 0.002802
vt 0.555211 0.997200
vt 0.444583 0.002802
vt 0.444788 0.997201
vt 0.334253 0.002802
vt 0.334366 0.997201
vt 0.223924 0.002802
vt 0.223943 0.997201
vt 0.113596 0.002802
vt 0.113520 0.997201
vt 0.003267 0.002802
vt 0.003098 0.997201
vt 0.885900 0.002800
vt 0.886479 0.997199
vt 0.996902 0.997198
vt 0.996229 0.002799
vt 0.775571 0.002801
vt 0.776057 0.997199
vt 0.665242 0.002801
vt 0.665634 0.997200
vt 0.554911 0.002802
vt 0.555211 0.997200
vt 0.444583 0.002802
vt 0.444788 0.997201
vt 0.334253 0.002802
vt 0.334366 0.997201
vt 0.223924 0.002802
vt 0.223943 0.997201
vt 0.113596 0.002802
vt 0.113520 0.997201
vt 0.003267 0.002802
vt 0.003098 0.997201
vt 0.885900 0.002800
vt 0.996229 0.002799
vt 0.996902 0.997198
vt 0.886479 0.997199
vt 0.775571 0.002801
vt 0.776057 0.997199
vt 0.665242 0.002801
vt 0.665634 0.997200
vt 0.554911 0.002802
vt 0.555211 0.997200
vt 0.444583 0.002802
vt 0.444788 0.997201
vt 0.334253 0.002802
vt 0.334366 0.997201
vt 0.223924 0.002802
vt 0.223943 0.997201
vt 0.113596 0.002802
vt 0.113520 0.997201
vt 0.003267 0.002802
vt 0.003098 0.997201
vn 0.800297 0.560380 0.213306
vn 0.800297 0.560380 0.213306
vn 0.690833 0.690833 0.213306
vn 0.690833 0.690833 0.213306
vn 0.885449 0.412893 0.213307
vn 0.885449 0.412893 0.213307
vn 0.943696 0.252860 0.213306
vn 0.943696 0.252860 0.213306
vn 0.973268 0.085147 0.213306
vn 0.973268 0.085147 0.213306
vn 0.973268 -0.085148 0.213306
vn 0.973268 -0.085148 0.213306
vn 0.943696 -0.252861 0.213306
vn 0.943696 -0.252861 0.213306
vn 0.885449 -0.412892 0.213306
vn 0.885449 -0.412892 0.213306
vn 0.799850 -0.561023 0.213290
vn 0.799850 -0.561023 0.213290
vn 0.690848 -0.690846 0.213214
vn 0.690848 -0.690846 0.213214
vn 0.560379 0.800297 0.213306
vn 0.560379 0.800297 0.213306
vn 0.412893 0.885449 0.213306
vn 0.412893 0.885449 0.213306
vn 0.252863 0.943695 0.213306
vn 0.252863 0.943695 0.213306
vn 0.085149 0.973268 0.213306
vn 0.085149 0.973268 0.213306
vn -0.085148 0.973268 0.213306
vn -0.085148 0.973268 0.213306
vn -0.252864 0.943695 0.213306
vn -0.252864 0.943695 0.213306
vn -0.412892 0.885449 0.213306
vn -0.412892 0.885450 0.213306
vn -0.561022 0.799851 0.213290
vn -0.561022 0.799851 0.213290
vn -0.690848 0.690846 0.213214
vn -0.690848 0.690846 0.213214
vn -0.560379 -0.800297 0.213306
vn -0.690833 -0.690833 0.213306
vn -0.690833 -0.690833 0.213306
vn -0.560379 -0.800297 0.213306
vn -0.412893 -0.885449 0.213306
vn -0.412893 -0.885449 0.213306
vn -0.252863 -0.943695 0.213306
vn -0.252863 -0.943695 0.213306
vn -0.085149 -0.973268 0.213306
vn -0.085149 -0.973268 0.213306
vn 0.085148 -0.973268 0.213306
vn 0.085148 -0.973268 0.213306
vn 0.252864 -0.943695 0.213306
vn 0.252864 -0.943695 0.213306
vn 0.412892 -0.885449 0.213306
vn 0.412892 -0.885450 0.213306
vn 0.561022 -0.799851 0.213290
vn 0.561022 -0.799851 0.213290
vn -0.800297 -0.560380 0.213306
vn -0.800297 -0.560380 0.213306
vn -0.885449 -0.412893 0.213307
vn -0.885449 -0.412893 0.213307
vn -0.943696 -0.252860 0.213306
vn -0.943696 -0.252860 0.213306
vn -0.973268 -0.085147 0.213306
vn -0.973268 -0.085147 0.213306
vn -0.973268 0.085148 0.213306
vn -0.973268 0.085148 0.213306
vn -0.943696 0.252861 0.213306
vn -0.943696 0.252861 0.213306
vn -0.885449 0.412892 0.213306
vn -0.885449 0.412892 0.213306
vn -0.799850 0.561023 0.213290
vn -0.799850 0.561023 0.213290
vn -0.169708 -0.962471 -0.211776
vn 0.000000 -0.977318 -0.211776
vn 0.000000 -0.977318 -0.211776
vn -0.169708 -0.962471 -0.211776
vn -0.334261 -0.918379 -0.211776
vn -0.334261 -0.918379 -0.211776
vn -0.488657 -0.846383 -0.211776
vn -0.488658 -0.846383 -0.211776
vn -0.628209 -0.748668 -0.211776
vn -0.628209 -0.748668 -0.211776
vn -0.748669 -0.628209 -0.211776
vn -0.748669 -0.628209 -0.211776
vn -0.846383 -0.488659 -0.211776
vn -0.846383 -0.488659 -0.211776
vn -0.918379 -0.334263 -0.211776
vn -0.918379 -0.334263 -0.211776
vn -0.962610 -0.168936 -0.211760
vn -0.962610 -0.168936 -0.211760
vn -0.977338 0.000000 -0.211684
vn -0.977338 0.000000 -0.211684
vn 0.169708 -0.962471 -0.211776
vn 0.169708 -0.962471 -0.211776
vn 0.334261 -0.918379 -0.211776
vn 0.334261 -0.918379 -0.211776
vn 0.488657 -0.846383 -0.211776
vn 0.488658 -0.846383 -0.211776
vn 0.628209 -0.748668 -0.211776
vn 0.628209 -0.748668 -0.211776
vn 0.748669 -0.628209 -0.211776
vn 0.748669 -0.628209 -0.211776
vn 0.846383 -0.488659 -0.211776
vn 0.846383 -0.488659 -0.211776
vn 0.918379 -0.334263 -0.211776
vn 0.918379 -0.334263 -0.211776
vn 0.962610 -0.168936 -0.211760
vn 0.962610 -0.168936 -0.211760
vn 0.977338 0.000000 -0.211684
vn 0.977338 0.000000 -0.211684
vn -0.169708 0.962471 -0.211776
vn -0.169708 0.962471 -0.211776
vn 0.000000 0.977318 -0.211776
vn -0.000000 0.977318 -0.211776
vn -0.334261 0.918379 -0.211776
vn -0.334261 0.918379 -0.211776
vn -0.488657 0.846383 -0.211776
vn -0.488658 0.846383 -0.211776
vn -0.628209 0.748668 -0.211776
vn -0.628209 0.748668 -0.211776
vn -0.748669 0.628209 -0.211776
vn -0.748669 0.628209 -0.211776
vn -0.846383 0.488659 -0.211776
vn -0.846383 0.488659 -0.211776
vn -0.918379 0.334263 -0.211776
vn -0.918379 0.334263 -0.211776
vn -0.962610 0.168936 -0.211760
vn -0.962610 0.168936 -0.211760
vn 0.169708 0.962471 -0.211776
vn 0.169708 0.962471 -0.211776
vn 0.334261 0.918379 -0.211776
vn 0.334261 0.918379 -0.211776
vn 0.488657 0.846383 -0.211776
vn 0.488658 0.846383 -0.211776
vn 0.628209 0.748668 -0.211776
vn 0.628209 0.748668 -0.211776
vn 0.748669 0.628209 -0.211776
vn 0.748669 0.628209 -0.211776
vn 0.846383 0.488659 -0.211776
vn 0.846383 0.488659 -0.211776
vn 0.918379 0.334263 -0.211776
vn 0.918379 0.334263 -0.211776
vn 0.962610 0.168936 -0.211760
vn 0.962610 0.168936 -0.211760
s 1
g spotLightCone
usemtl lambert3SG
f 38/1/1 3/2/2 1/3/3 37/4/4
f 39/5/5 4/6/6 3/2/2 38/1/1
f 40/7/7 5/8/8 4/6/6 39/5/5
f 41/9/9 6/10/10 5/8/8 40/7/7
f 42/11/11 7/12/12 6/10/10 41/9/9
f 43/13/13 8/14/14 7/12/12 42/11/11
f 44/15/15 9/16/16 8/14/14 43/13/13
f 45/17/17 10/18/18 9/16/16 44/15/15
f 46/19/19 2/20/20 10/18/18 45/17/17
f 47/21/21 37/22/4 1/23/3 12/24/22
f 48/25/23 47/21/21 12/24/22 13/26/24
f 49/27/25 48/25/23 13/26/24 14/28/26
f 50/29/27 49/27/25 14/28/26 15/30/28
f 51/31/29 50/29/27 15/30/28 16/32/30
f 52/33/31 51/31/29 16/32/30 17/34/32
f 53/35/33 52/33/31 17/34/32 18/36/34
f 54/37/35 53/35/33 18/36/34 19/38/36
f 55/39/37 54/37/35 19/38/36 11/40/38
f 56/41/39 57/42/40 20/43/41 21/44/42
f 58/45/43 56/41/39 21/44/42 22/46/44
f 59/47/45 58/45/43 22/46/44 23/48/46
f 60/49/47 59/47/45 23/48/46 24/50/48
f 61/51/49 60/49/47 24/50/48 25/52/50
f 62/53/51 61/51/49 25/52/50 26/54/52
f 63/55/53 62/53/51 26/54/52 27/56/54
f 64/57/55 63/55/53 27/56/54 28/58/56
f 46/59/19 64/57/55 28/58/56 2/60/20
f 65/61/57 29/62/58 20/63/41 57/64/40
f 66/65/59 30/66/60 29/62/58 65/61/57
f 67/67/61 31/68/62 30/66/60 66/65/59
f 68/69/63 32/70/64 31/68/62 67/67/61
f 69/71/65 33/72/66 32/70/64 68/69/63
f 70/73/67 34/74/68 33/72/66 69/71/65
f 71/75/69 35/76/70 34/74/68 70/73/67
f 72/77/71 36/78/72 35/76/70 71/75/69
f 55/79/37 11/80/38 36/78/72 72/77/71
s 3
f 77/81/73 73/82/74 74/83/75 78/84/76
f 79/85/77 77/81/73 78/84/76 80/86/78
f 81/87/79 79/85/77 80/86/78 82/88/80
f 83/89/81 81/87/79 82/88/80 84/90/82
f 85/91/83 83/89/81 84/90/82 86/92/84
f 87/93/85 85/91/83 86/92/84 88/94/86
f 89/95/87 87/93/85 88/94/86 90/96/88
f 91/97/89 89/95/87 90/96/88 92/98/90
f 76/99/91 91/97/89 92/98/90 75/100/92
f 95/101/93 96/102/94 74/103/75 73/104/74
f 97/105/95 98/106/96 96/102/94 95/101/93
f 99/107/97 100/108/98 98/106/96 97/105/95
f 101/109/99 102/110/100 100/108/98 99/107/97
f 103/111/101 104/112/102 102/110/100 101/109/99
f 105/113/103 106/114/104 104/112/102 103/111/101
f 107/115/105 108/116/106 106/114/104 105/113/103
f 109/117/107 110/118/108 108/116/106 107/115/105
f 94/119/109 93/120/110 110/118/108 109/117/107
f 113/121/111 114/122/112 112/123/113 111/124/114
f 115/125/115 116/126/116 114/122/112 113/121/111
f 117/127/117 118/128/118 116/126/116 115/125/115
f 119/129/119 120/130/120 118/128/118 117/127/117
f 121/131/121 122/132/122 120/130/120 119/129/119
f 123/133/123 124/134/124 122/132/122 121/131/121
f 125/135/125 126/136/126 124/134/124 123/133/123
f 127/137/127 128/138/128 126/136/126 125/135/125
f 76/139/91 75/140/92 128/138/128 127/137/127
f 129/141/129 111/142/114 112/143/113 130/144/130
f 131/145/131 129/141/129 130/144/130 132/146/132
f 133/147/133 131/145/131 132/146/132 134/148/134
f 135/149/135 133/147/133 134/148/134 136/150/136
f 137/151/137 135/149/135 136/150/136 138/152/138
f 139/153/139 137/151/137 138/152/138 140/154/140
f 141/155/141 139/153/139 140/154/140 142/156/142
f 143/157/143 141/155/141 142/156/142 144/158/144
f 94/159/109 143/157/143 144/158/144 93/160/110
